<svg 
 xmlns="http://www.w3.org/2000/svg"
 xmlns:xlink="http://www.w3.org/1999/xlink"
 width="137px" height="31px">
<path fill-rule="evenodd"  fill="white"
 d="M132.178,28.532 L132.178,27.541 C130.324,28.481 128.623,28.951 127.074,28.951 C124.585,28.951 122.763,28.202 121.608,26.703 C120.452,25.205 119.874,22.691 119.874,19.161 C119.874,15.631 120.515,13.066 121.798,11.466 C123.080,9.866 125.080,9.066 127.798,9.066 C128.712,9.066 130.159,9.232 132.140,9.562 L132.140,1.562 L136.292,1.562 L136.292,28.532 L132.178,28.532 ZM132.140,13.028 C130.616,12.775 129.207,12.647 127.912,12.647 C125.347,12.647 124.065,14.780 124.065,19.047 C124.065,21.383 124.363,23.002 124.960,23.904 C125.556,24.805 126.502,25.256 127.798,25.256 C129.093,25.256 130.324,25.027 131.493,24.570 L132.140,24.304 L132.140,13.028 ZM112.294,1.562 L116.446,1.562 L116.446,28.532 L112.294,28.532 L112.294,1.562 ZM104.295,27.541 C102.263,28.481 100.219,28.951 98.162,28.951 C94.378,28.951 92.487,26.932 92.487,22.894 C92.487,20.964 93.001,19.568 94.029,18.704 C95.058,17.841 96.639,17.320 98.772,17.142 L103.686,16.723 L103.686,15.352 C103.686,14.336 103.463,13.625 103.019,13.219 C102.575,12.813 101.920,12.609 101.057,12.609 C99.432,12.609 97.400,12.711 94.963,12.914 L93.744,12.990 L93.591,10.057 C96.359,9.397 98.905,9.066 101.229,9.066 C103.552,9.066 105.228,9.568 106.257,10.571 C107.285,11.575 107.800,13.168 107.800,15.352 L107.800,24.037 C107.825,24.596 107.971,25.008 108.238,25.275 C108.504,25.542 108.917,25.713 109.476,25.789 L109.362,28.951 C107.177,28.951 105.489,28.481 104.295,27.541 ZM103.686,19.656 L99.267,20.075 C97.515,20.228 96.639,21.180 96.639,22.932 C96.639,24.684 97.413,25.561 98.962,25.561 C100.232,25.561 101.578,25.358 103.000,24.951 L103.686,24.723 L103.686,19.656 ZM85.897,14.895 L85.059,15.237 L85.059,28.532 L80.907,28.532 L80.907,9.485 L85.021,9.485 L85.021,11.771 C87.179,10.375 89.338,9.473 91.496,9.066 L91.496,13.219 C89.312,13.651 87.445,14.209 85.897,14.895 ZM65.784,20.761 C65.809,22.336 66.152,23.491 66.813,24.227 C67.473,24.964 68.704,25.332 70.508,25.332 C72.310,25.332 74.164,25.256 76.069,25.103 L77.136,24.989 L77.212,28.075 C74.317,28.659 71.751,28.951 69.517,28.951 C66.698,28.951 64.673,28.176 63.441,26.627 C62.209,25.078 61.594,22.602 61.594,19.199 C61.594,12.444 64.349,9.066 69.860,9.066 C75.193,9.066 77.859,11.975 77.859,17.790 L77.593,20.761 L65.784,20.761 ZM72.888,13.619 C72.291,12.870 71.282,12.495 69.860,12.495 C68.437,12.495 67.403,12.889 66.755,13.676 C66.108,14.463 65.771,15.758 65.746,17.561 L73.783,17.561 C73.783,15.682 73.485,14.368 72.888,13.619 ZM49.938,28.951 C45.976,28.951 43.246,27.859 41.748,25.675 C40.249,23.491 39.500,20.069 39.500,15.409 C39.500,10.749 40.268,7.352 41.805,5.219 C43.341,3.086 46.001,2.019 49.785,2.019 C52.020,2.019 54.534,2.273 57.328,2.781 L58.661,3.048 L58.509,6.400 C55.436,5.994 52.680,5.791 50.243,5.791 C47.805,5.791 46.135,6.476 45.233,7.848 C44.332,9.219 43.881,11.759 43.881,15.466 C43.881,19.174 44.306,21.732 45.157,23.142 C46.008,24.551 47.728,25.256 50.319,25.256 C52.172,25.256 53.557,25.142 54.471,24.913 L54.471,18.552 L51.233,18.552 L51.233,14.818 L58.661,14.818 L58.661,28.075 C57.975,28.253 56.585,28.443 54.490,28.646 C52.395,28.849 50.877,28.951 49.938,28.951 ZM33.600,22.467 L24.533,29.667 C24.533,29.667 24.179,30.093 23.867,30.200 C23.555,30.307 23.067,30.333 23.067,30.333 L1.467,30.467 C1.467,30.467 1.054,30.436 0.800,30.200 C0.546,29.964 0.533,29.667 0.533,29.667 L0.400,23.800 C0.400,23.800 0.552,23.406 0.667,23.267 C0.781,23.127 1.067,22.867 1.067,22.867 L4.667,22.867 L7.467,20.600 C7.467,20.600 8.235,19.930 8.933,19.667 C9.631,19.404 10.667,19.133 10.667,19.133 L21.467,19.133 C21.467,19.133 23.067,19.644 23.067,20.867 C23.067,22.089 21.600,22.867 21.600,22.867 L16.133,22.867 C16.133,22.867 15.600,23.131 15.600,23.800 C15.600,24.469 16.267,24.867 16.267,24.867 L23.867,24.867 C23.867,24.867 24.318,24.878 24.800,24.600 C25.282,24.322 31.067,19.800 31.067,19.800 C31.067,19.800 31.703,19.133 32.533,19.133 C33.364,19.133 33.834,19.413 34.133,19.933 C34.433,20.453 34.376,21.090 34.267,21.533 C34.157,21.976 33.600,22.467 33.600,22.467 ZM18.267,14.867 C18.267,14.867 17.891,15.267 17.333,15.267 C16.776,15.267 16.533,14.867 16.533,14.867 L10.133,8.067 C10.133,8.067 8.933,7.021 8.933,4.867 C8.933,2.712 10.750,0.200 13.200,0.200 C15.650,0.200 17.067,2.200 17.067,2.200 C17.067,2.200 17.101,2.445 17.333,2.467 C17.566,2.488 17.733,2.067 17.733,2.067 C17.733,2.067 19.208,0.200 21.467,0.200 C23.725,0.200 25.867,2.136 25.867,4.733 C25.867,7.331 24.800,7.933 24.800,7.933 L18.267,14.867 Z"/>
</svg>