<?xml version="1.0" standalone="no"?>
<!DOCTYPE svg PUBLIC "-//W3C//DTD SVG 20010904//EN"
 "http://www.w3.org/TR/2001/REC-SVG-20010904/DTD/svg10.dtd">
<svg version="1.0" xmlns="http://www.w3.org/2000/svg"
 width="300.000000pt" height="300.000000pt" viewBox="0 0 300.000000 300.000000"
 preserveAspectRatio="xMidYMid meet">
<metadata>
Created by potrace 1.11, written by Peter Selinger 2001-2013
</metadata>
<g transform="translate(0.000000,300.000000) scale(0.100000,-0.100000)"
fill="#000000" stroke="none">
<path d="M1064 2706 c-130 -32 -232 -137 -270 -281 -34 -125 4 -277 92 -372
42 -45 351 -368 464 -485 143 -148 136 -148 295 16 156 161 432 449 457 478
139 160 124 421 -33 562 -147 133 -375 119 -525 -33 l-54 -54 -55 55 c-51 51
-122 95 -182 112 -43 13 -139 14 -189 2z"/>
<path d="M940 1142 c-57 -7 -159 -44 -212 -76 -31 -18 -113 -79 -181 -135
l-125 -101 -150 0 c-214 0 -196 27 -200 -303 l-3 -265 25 -28 24 -29 929 0
c1061 0 957 -9 1097 98 44 33 92 71 106 83 14 12 120 97 235 189 116 92 223
177 239 191 16 13 43 34 60 46 124 92 152 172 95 264 -36 58 -132 84 -196 52
-24 -12 -454 -349 -490 -384 -7 -7 -39 -25 -70 -41 l-58 -28 -330 -1 c-347 -1
-371 2 -394 45 -13 23 -5 69 16 90 14 14 52 17 252 21 254 5 268 8 320 64 37
39 41 128 9 175 -13 19 -39 44 -58 55 -34 20 -49 21 -475 21 -242 0 -451 -1
-465 -3z"/>
</g>
</svg>
